<svg width="140" height="40" viewBox="0 0 140 40" xmlns="http://www.w3.org/2000/svg"><path d="M137.176 25.086l.874 2.837-.874-2.837zM9.329 19.413l-.443 1.504c.053 0 .126.007.218.017.095.01.163.016.199.016.468 0 .838-.079 1.114-.233.278-.155.45-.342.514-.556a.603.603 0 0 0-.135-.595c-.155-.18-.375-.27-.659-.27-.207 0-.653.04-.808.117zm120.794-5.634h3.835l-2.97 9.922h-3.835l2.97-9.922zm-52.01-7.25c-1.095-1.255-3.616-.677-5.799.299.02.232.03.467.03.704 0 2.794-1.364 5.241-3.38 6.542 1.332-.08 2.938-.453 4.69-1.518 3.202-1.949 5.534-4.417 4.46-6.027zm59.834 18.557h-36.084l.495 2.837h36.508l-.919-2.837zM1.871 33.23L1.6 34.567h2.268c-.328.71-1.012 1.057-1.827 1.057-.43 0-1.03-.07-1.544-.318L0 36.969c.736.234 1.59.358 2.078.358 3.063 0 4.6-1.993 4.6-4.023 0-1.34-.716-2.228-1.902-2.579-.92-.272-1.97-.193-2.903-.04l-.506 1.696c.88-.284 2.596-.42 2.772.848H1.871zm5.772-.916l-1.003 4.9h2.361l.366-1.804h.843l-.366 1.804h2.362l1.002-4.9h-2.36l-.348 1.693h-.843l.346-1.693h-2.36zm11.243 3.02l.065-.29c.075-.317.122-.616.122-.925 0-.225-.028-.459-.102-.674-.141-.393-.638-1.244-2.277-1.244-2.53 0-3.364 2.021-3.364 3.152 0 .702.3 1.15.646 1.43.6.498 1.434.545 1.987.545.665 0 1.405-.066 2.22-.282l.262-1.272c-.533.177-1.292.336-1.855.336-.992 0-1.012-.532-.983-.775h3.279zm-3.073-1l.018-.094c.16-.814.619-.87.77-.87.196 0 .477.095.477.571 0 .093-.01.197-.029.29l-.018.103h-1.218zm6.568-2.02h-2.193l-1.424 6.95h2.361l.553-2.676c.309.655.956.74 1.349.74 1.527 0 2.726-1.283 2.726-3.265 0-1.769-1.274-1.862-1.696-1.862-.712 0-1.358.29-1.807.945h-.038l.169-.832zm.384 1.477c.122 0 .44.038.44.543 0 .28-.084.71-.207.991-.186.43-.449.543-.655.543-.169 0-.431-.084-.431-.543 0-.299.075-.692.206-.991.178-.412.422-.543.647-.543zm7.88-.074l.29-1.403h-4.086l-1.002 4.9h2.36l.713-3.497h1.724zm4.309-1.403l-1.565 2.291h-.047l.469-2.291h-2.155l-1.003 4.9h2.333l1.546-2.29h.047l-.469 2.29h2.156l1.002-4.9h-2.314zm8.601 0h-3.598c-1.509 0-2.323 1.02-2.323 1.945 0 .58.383.888.72 1.01l-1.433 1.945h2.427l.918-1.627h.253l-.327 1.627h2.36l1.003-4.9zm-2.558 1.16l-.225 1.103h-.178c-.263 0-.543-.15-.543-.449 0-.262.168-.655.75-.655h.196zm5.93-1.16l-.29 1.403h1.312l-.713 3.497h2.362l.712-3.497h1.311l.291-1.403h-4.984zm5.547 0l-1.002 4.9h3.626c1.396 0 2.08-.851 2.08-1.6 0-.541-.413-.907-.956-.962v-.028c.862-.216 1.19-.805 1.19-1.338 0-.972-1.05-.972-1.387-.972h-3.55zm1.94 1.047h.29c.169 0 .553.01.553.346 0 .15-.075.505-.731.505h-.29l.177-.85zm-.375 1.833h.337c.206 0 .59 0 .59.402 0 .243-.159.571-.786.571h-.338l.197-.973zm7.476-2.993c-2.408 0-3.616 1.571-3.616 3.115 0 .655.3 2.012 2.642 2.012 2.249 0 3.588-1.46 3.588-3.041 0-1.038-.674-2.086-2.614-2.086zm-.262 1.403c.347 0 .365.328.365.468 0 .411-.13.954-.252 1.29-.085.243-.244.562-.61.562-.15 0-.346-.085-.346-.459 0-.392.168-1.169.318-1.468.066-.13.216-.393.525-.393zm8.732 1.73l.065-.29c.075-.317.122-.616.122-.925 0-.225-.028-.459-.102-.674-.141-.393-.638-1.244-2.277-1.244-2.53 0-3.364 2.021-3.364 3.152 0 .702.3 1.15.647 1.43.6.498 1.433.545 1.986.545a8.54 8.54 0 0 0 2.22-.282l.263-1.272c-.534.177-1.293.336-1.856.336-.992 0-1.012-.532-.983-.775h3.28zm-3.073-1l.018-.094c.16-.814.62-.87.77-.87.196 0 .477.095.477.571 0 .093-.01.197-.028.29l-.02.103h-1.217zm8.17-.617l.29-1.403h-4.085l-1.002 4.9h2.36l.712-3.497h1.725zm3.813-1.516c-2.408 0-3.616 1.571-3.616 3.115 0 .655.3 2.012 2.641 2.012 2.25 0 3.589-1.46 3.589-3.041 0-1.038-.674-2.086-2.614-2.086zm-.262 1.403c.346 0 .365.328.365.468 0 .411-.13.954-.253 1.29-.084.243-.243.562-.61.562-.149 0-.346-.085-.346-.459 0-.392.17-1.169.32-1.468.064-.13.215-.393.524-.393zm12.63-3.684c-.507.205-.9.28-1.415.327-1.068.103-2.118.094-3.148.692-1.34.776-2.062 2.665-2.062 4.2 0 .832.281 2.189 2.53 2.189 2.708 0 3.626-1.694 3.626-2.835 0-1.263-.984-1.824-2.267-1.824-.572 0-1.397.122-2.034.88h-.065l.056-.225c.197-.804.778-1.066 1.237-1.188.496-.13 1.086-.168 1.752-.206.665-.037 1.05-.093 1.443-.317l.346-1.693zm-3.776 6.004c-.338 0-.394-.253-.394-.45 0-.252.103-.785.206-1.028.15-.374.375-.467.562-.467.347 0 .384.261.384.449 0 .187-.018.354-.056.523-.084.421-.225.973-.702.973zm3.888-3.61l.787 5.023-.075.159c-.187.383-.61.421-.796.421-.235 0-.46-.028-.703-.112l-.283 1.383a6.256 6.256 0 0 0 1.379.188c1.386 0 2.314-.58 3.044-1.964l2.699-5.098h-2.314L93.886 35.4h-.029l-.037-3.086h-2.445zm12.048 0h-4.787l-.187.954c-.206 1.028-.413 1.88-1.303 2.543h-.394l-.572 2.76h2.137l.281-1.357h2.352l-.282 1.357h2.138l.57-2.76h-.664l.711-3.497zm-2.848 3.497h-1.293c.553-.56.722-1.084.872-1.814l.056-.28h.787l-.422 2.094zm3.523-3.497l.787 5.023-.075.159c-.187.383-.609.421-.796.421a2.07 2.07 0 0 1-.703-.112l-.283 1.383a6.252 6.252 0 0 0 1.38.188c1.386 0 2.313-.58 3.044-1.964l2.699-5.098h-2.315l-1.227 3.086h-.028l-.038-3.086h-2.445zm6.446 0l-1.002 4.9h6.539l-.281 1.357h2.09l.571-2.76h-.665l.712-3.497h-2.155l-.712 3.497h-.75l.712-3.497h-2.155l-.712 3.497h-.749l.712-3.497h-2.155zm13.97 3.02l.065-.29c.075-.317.122-.616.122-.925 0-.225-.028-.459-.103-.674-.141-.393-.638-1.244-2.277-1.244-2.53 0-3.364 2.021-3.364 3.152 0 .702.3 1.15.647 1.43.6.498 1.433.545 1.986.545.665 0 1.405-.066 2.22-.282l.262-1.272c-.533.177-1.292.336-1.854.336-.993 0-1.012-.532-.984-.775h3.28zm-3.074-1l.02-.094c.159-.814.618-.87.767-.87.197 0 .478.095.478.571 0 .093-.01.197-.028.29l-.02.103h-1.217zm8.17-.617l.29-1.403h-4.085l-1.002 4.9h2.361l.712-3.497h1.724zm3.813-1.516c-2.407 0-3.617 1.571-3.617 3.115 0 .655.3 2.012 2.643 2.012 2.249 0 3.588-1.46 3.588-3.041 0-1.038-.674-2.086-2.614-2.086zm-.262 1.403c.346 0 .365.328.365.468 0 .411-.131.954-.253 1.29-.084.243-.243.562-.609.562-.15 0-.346-.085-.346-.459 0-.392.168-1.169.318-1.468.066-.13.216-.393.525-.393zm4.328-2.936l-.468 4.124h1.78L140 30.667h-2.51zm-.74 4.797l-.366 1.75h2.044l.365-1.75h-2.042zm-1.555-19.244h4.088l-3.099 3.386 1.251 4.095h-4.07l-.894-4.095 2.724-3.386zm-16.464 0h3.819l-.72 2.407h2.136l.72-2.407h3.802l-2.24 7.481h-3.835l.872-2.91h-2.087l-.87 2.91h-3.835l2.238-7.48zm-17.91.335c1.498-.417 2.747-.626 3.754-.626 1.081 0 1.863.253 2.345.756.483.504.71 1.228.682 2.169a5.56 5.56 0 0 1-.19.93 5.13 5.13 0 0 1-.624 1.323 5.53 5.53 0 0 1-1.057 1.18c-.425.36-.914.664-1.468.909a6.688 6.688 0 0 1-1.827.505c-.43.074-.95.11-1.557.11-.739 0-1.375-.098-1.907-.294l.67 4.532h-3.302l-.083-3.69-1.85 3.69h-3.318l-.604-3.69-1.39 3.69h-3.305l3.124-6.935h3.665l.77 3.363 1.51-3.363h2.23a3.5 3.5 0 0 1 .116-1.073l.999-3.34c.343-1.078.917-1.894 1.725-2.448a6.808 6.808 0 0 1 2.624-1.086c.942-.173 2.04-.28 3.295-.322 1.255-.043 2.04-.088 2.356-.14l-.83 2.776c-.71-.192-1.518-.288-2.428-.288-.645 0-1.275.052-1.889.16-.614.107-1.123.255-1.531.442-.407.187-.644.393-.71.617a.303.303 0 0 0 .002.077c.006.04.006.064.003.066zm10.948 7.146c-.038.007-.973.122-1.011.129-.364.053-.732.08-1.105.08-.963 0-1.656-.206-2.078-.619-.42-.41-.557-.932-.407-1.564.197-.564.465-1.008.805-1.335a3.304 3.304 0 0 1 1.178-.732c.44-.163.976-.29 1.603-.384a188.43 188.43 0 0 1 1.685-.246c.191-.015.362-.07.517-.16.153-.09.245-.182.273-.276.03-.1-.022-.191-.156-.267-.131-.079-.347-.115-.646-.115-.775 0-1.92.234-3.432.706l.96-2.361c1.68-.265 3.01-.398 3.986-.398 1.097 0 1.945.147 2.538.44.593.293.832.756.715 1.39l-1.71 5.712h-3.715zm.616-2.053l.234-.783c-.344.116-.72.196-1.072.286-.156.038-.284.1-.39.182a.523.523 0 0 0-.195.25c.006.091.003.184.096.278.09.093.209.14.355.14.136 0 .291-.042.465-.123.024-.011.483-.218.507-.23zm-82.189 3.106a323.804 323.804 0 0 1-.228-5.268l-2.481 4.096h-3.681L28.98 16.1h4.118l.472 5.066a17.398 17.398 0 0 1 2.95-.274 8.78 8.78 0 0 1 1.956.196c.57.127 1.014.331 1.334.61.74.64.456 1.68-.058 2.37a2.857 2.857 0 0 1-.951.82 5.137 5.137 0 0 1-1.236.463c-.447.108-1 .207-1.655.3a1.02 1.02 0 0 0-.456.155c-.139.088-.212.17-.222.25-.011.09.055.172.199.244.14.073.356.11.64.11.65 0 1.71-.232 3.18-.696l-.515 2.155c-1.34.228-2.539.34-3.594.34-1.086 0-1.958-.138-2.613-.418-.655-.28-.982-.714-.977-1.305.117-.673.379-1.19.79-1.56a3.446 3.446 0 0 1 1.388-.768c.519-.145 1.278-.301 2.277-.468a1.05 1.05 0 0 0 .446-.141c.124-.075.189-.164.201-.262.013-.109-.06-.2-.218-.282-.158-.08-.399-.122-.722-.122-2.072 0-3.644 1.21-5.52 1.87zm-26.71.299h27.15l-.617 2.904H2.591l.895-2.904zm6.585-8.087c.198-.02 1.57-.032 1.91-.032.853 0 1.53.164 2.026.49.499.327.816.752.948 1.277.135.522.113 1.073-.06 1.653a4.702 4.702 0 0 1-.84 1.581c-.39.492-.873.888-1.44 1.19a3.805 3.805 0 0 1-1.821.457H3.88l2.97-9.923h8.76l-.79 2.633h-4.548l-.202.674zm13.959 4.1l-1.64 2.36c-1.933.315-4.583.795-6.24-.562-.731-.597-.896-1.557-.5-2.879.13-.437.318-.916.578-1.424.268-.527.685-.977 1.236-1.356a6.3 6.3 0 0 1 1.852-.868c1.364-.398 3.188-.493 4.457.273.484.293.825.697 1.013 1.214.19.514.18 1.12-.025 1.807-.025.082-.071.21-.137.386-.066.174-.116.308-.148.403h-5.31c-.075.715.401 1.074 1.427 1.074 1.042 0 2.441-.168 3.437-.429zm-4.484-1.913h1.83l.038-.127c.088-.296.065-.504-.037-.658-.31-.459-.94-.27-1.306.005a1.47 1.47 0 0 0-.525.78zm24.882 8.896c-.045.007-.907.116-.952.123-.317.048-.644.07-.977.07-.892 0-1.569-.193-2.027-.572-.46-.382-.67-.866-.636-1.452.09-.521.265-.934.527-1.237.262-.302.584-.53.97-.679a6.849 6.849 0 0 1 1.423-.354c.565-.09 1.071-.164 1.522-.23a.975.975 0 0 0 .45-.147c.13-.084.197-.17.21-.256.011-.094-.052-.178-.189-.248-.134-.073-.342-.107-.618-.107-.717 0-1.74.218-3.063.654l.5-2.188c1.512-.247 2.723-.37 3.63-.37 1.016 0 1.824.136 2.425.41.597.272.894.702.891 1.287l-.645 5.296h-3.44zm5.402-6.623c1.513-.247 2.749-.37 3.705-.37 1.213 0 2.075.164 2.587.49.462.396.66.866.594 1.414a1.606 1.606 0 0 1-.46.931c-.263.277-.606.463-1.026.559.542.173.9.401 1.078.68.177.278.239.633.188 1.058l-.031.252c-.095.43-.343.788-.744 1.071-.402.285-.909.497-1.527.632a9.603 9.603 0 0 1-2.064.205c-.957 0-1.964-.101-3.026-.299l.051-2.128c.896.313 2.003.682 2.969.682.271 0 .533-.085.785-.258.253-.17.392-.371.42-.603.056-.457-.287-.863-1.032-1.222a1.57 1.57 0 0 0 .745-.364c.193-.18.303-.36.324-.545.036-.295-.092-.492-.379-.594-.072-.02-.25-.03-.535-.03-.874 0-1.926.199-3.153.595l.531-2.156zM72.503 23.3c.533.065.732.666.646 1.383-.087.717-.7 1.218-1.233 1.153-.533-.064-.727-.668-.64-1.385.087-.717.695-1.215 1.227-1.15zm-14.57-2.185h3.43l-.078.639c.29-.266.691-.483 1.207-.646a5.008 5.008 0 0 1 1.56-.246c.509 0 .973.082 1.398.251.425.168.757.436.995.805.24.369.334.823.282 1.368l-.579 4.764h-3.554l.435-3.572c.033-.267-.024-.478-.17-.633a.726.726 0 0 0-.542-.233c-.287 0-.561.128-.82.38-.264.252-.423.601-.486 1.05l-.366 3.008H57.09l.843-6.935zm23.295 2.497a1.74 1.74 0 0 0-.464.968c-.04.326.02.623.173.895.178.297.407.447.685.447.237 0 .483-.114.733-.343a1.64 1.64 0 0 0 .428-.938c.043-.353-.01-.67-.16-.955-.149-.285-.354-.428-.615-.428-.24 0-.502.118-.78.354zm-.514-2.619a7.179 7.179 0 0 1 1.702-.176c.588 0 1.12.075 1.594.226.473.15.874.355 1.204.614a3.1 3.1 0 0 1 .79.91c.198.347.318.706.36 1.077a3.756 3.756 0 0 1-.366 2.063 3.99 3.99 0 0 1-.779 1.067 4.38 4.38 0 0 1-1.174.822 5.114 5.114 0 0 1-1.535.454c-.541.068-.989.102-1.345.102-.897 0-1.656-.168-2.276-.506-.62-.333-1.069-.775-1.344-1.323a2.986 2.986 0 0 1-.304-1.743c.096-.772.444-1.491 1.045-2.157a4.646 4.646 0 0 1 2.428-1.43zm-12.622.328c.154-.006.506-.04 1.054-.1.55-.057 1.044-.106 1.488-.143.446-.035.9-.053 1.363-.053 2.314 0 3.75.54 4.3 1.622.315.68.419 1.457.312 2.337a4.499 4.499 0 0 1-.53 1.648c-.283.51-.665.919-1.146 1.225-.482.307-1.034.46-1.653.46-.742 0-1.542-.222-2.405-.67l-.416 3.42h-3.553l1.186-9.746zm-23.445 4.92l.107-.888a5.901 5.901 0 0 1-.956.332.746.746 0 0 0-.329.169c-.084.077-.132.153-.142.231-.01.087.02.222.12.31.1.086.236.099.368.08.26-.04.576-.154.832-.235zm57.185-7.505a3.11 3.11 0 0 0-.75 1.256c-.098.325-.1.613-.005.87.12.353.331.53.639.53.272 0 .6-.152.985-.454.296-.23.512-.566.644-1.013a2.08 2.08 0 0 0 .092-.747 1.1 1.1 0 0 0-.193-.596.537.537 0 0 0-.464-.231c-.278 0-.596.127-.948.385zM53.188 6.53c1.096-1.255 3.617-.677 5.8.299a8.2 8.2 0 0 0-.03.704c0 2.795 1.365 5.241 3.381 6.542-1.332-.08-2.94-.453-4.69-1.518-3.203-1.949-5.534-4.417-4.46-6.027zm28.45 5.422c-.742-.6-2.191-.898-3.84-1.005-.804 1.084-1.937 2.14-3.279 3.032-.583.387-1.209.712-1.853.977a22.3 22.3 0 0 0 2.816-.189c4.177-.55 7.323-1.6 6.155-2.815zM53.23 10.559c-2.076.25-3.723.723-4.266 1.273-1.54 1.599 1.393 3.277 5.925 3.992 2.606.411 8.314.714 10.762-.654 2.446 1.368 8.156 1.065 10.76.654 4.533-.715 7.466-2.393 5.926-3.992-.544-.55-2.191-1.024-4.267-1.273 1.056-1.589 1.376-3.198.577-4.398-.772-1.127-3.61-1.272-6.457-.226C71.538 2.55 68.851 0 65.651 0s-5.887 2.55-6.54 5.935c-2.846-1.047-5.685-.901-6.457.226-.8 1.2-.48 2.81.577 4.398zm-3.566 1.392c.741-.6 2.19-.898 3.838-1.005.804 1.084 1.938 2.14 3.28 3.032.583.387 1.209.712 1.853.977a22.286 22.286 0 0 1-2.816-.189c-4.177-.55-7.323-1.6-6.155-2.815zM65.65.739c2.565 0 4.696 2.562 5.034 5.87-.33.174-.654.367-.97.577a16.22 16.22 0 0 0-.689.484l-.041 1.164c.392-.348 1.009-.777 1.747-1.2-.041 3.695-2.307 6.692-5.081 6.692-2.774 0-5.04-2.996-5.08-6.692.737.424 1.354.852 1.746 1.2l-.041-1.164a16.582 16.582 0 0 0-.69-.484c-.315-.21-.64-.403-.969-.578.338-3.307 2.47-5.87 5.034-5.87z" fill="#fff" fill-rule="evenodd"></path></svg>