<?xml version="1.0" encoding="UTF-8"?>
<!DOCTYPE svg PUBLIC "-//W3C//DTD SVG 1.1//EN" "http://www.w3.org/Graphics/SVG/1.1/DTD/svg11.dtd">
<!-- Creator: CorelDRAW X6 -->
<svg xmlns="http://www.w3.org/2000/svg" xml:space="preserve" width="1530px" height="1530px" version="1.1" style="shape-rendering:geometricPrecision; text-rendering:geometricPrecision; image-rendering:optimizeQuality; fill-rule:evenodd; clip-rule:evenodd"
viewBox="0 0 1530 1530"
 xmlns:xlink="http://www.w3.org/1999/xlink">
 <defs>
  <style type="text/css">
   <![CDATA[
    .fil0 {fill:url(#id0)}
   ]]>
  </style>
  <linearGradient id="id0" gradientUnits="userSpaceOnUse" x1="339.582" y1="1129.13" x2="1187.28" y2="379.246">
   <stop offset="0" style="stop-color:#2AF598"/>
   <stop offset="1" style="stop-color:#009EFD"/>
  </linearGradient>
 </defs>
 <g id="Слой_x0020_1">
  <metadata id="CorelCorpID_0Corel-Layer"/>
  <path class="fil0" d="M867 969c0,141 114,255 255,255 141,0 255,-114 255,-255 0,-141 -114,-255 -255,-255 -141,0 -255,114 -255,255zm-558 265c133,-232 216,-489 245,-755l237 236c5,4 11,7 18,7 1,0 3,0 4,0 8,-2 15,-7 19,-14 48,-96 29,-212 -47,-288l-21 -21 180 0c14,0 25,-11 25,-25 0,-3 0,-6 -1,-8 -34,-102 -129,-171 -237,-171l-33 0 127 -128c10,-10 10,-26 0,-36 -2,-2 -4,-3 -6,-5 -96,-48 -212,-29 -288,47l-24 24c-8,8 -16,17 -23,26 -6,-9 -14,-18 -21,-26l-25 -24c-76,-76 -192,-95 -288,-47 -12,7 -17,22 -11,35 1,2 3,4 5,6l127 128 -33 0c-108,0 -203,69 -237,171 -4,13 3,28 16,32 3,1 6,1 9,1l179 0 -21 21c-76,76 -95,192 -47,288 4,7 11,12 19,14 1,0 3,0 4,0 7,0 13,-3 18,-7l221 -220c-28,244 -120,477 -267,674 -34,-9 -69,-16 -104,-21l-16 -2 -5 51 15 1c25,4 51,9 76,15 -5,6 -10,13 -16,19l40 33c196,-233 312,-522 333,-826l30 -29 21 22c-26,324 -138,637 -323,905l42 29c20,-29 39,-58 58,-89 119,58 224,140 308,242l40 -32c-50,-60 -107,-114 -170,-161l1069 0 0 -51 -1144 0c-25,-15 -51,-29 -77,-41l0 0zm491 -583l-270 -268c69,-20 144,-2 195,49l24 24c51,51 70,126 51,195zm105 -303l-212 0c-49,-23 -104,-30 -157,-19 37,-52 97,-83 161,-83l34 0c72,0 139,39 174,102zm-362 -214l24 -25c51,-51 125,-70 195,-50l-151 152c-49,18 -92,51 -121,94 -12,-62 8,-126 53,-171l0 0zm-141 -25l24 25c12,11 22,24 30,38 -12,27 -18,56 -20,85 -23,-20 -49,-36 -78,-46l-151 -152c70,-20 144,-1 195,50l0 0zm-164 137l34 0c64,0 124,31 162,83 -54,-11 -109,-4 -158,19l-212 0c35,-63 102,-102 174,-102l0 0zm-69 405c-19,-69 0,-144 51,-195l24 -24c37,-37 87,-57 139,-57 19,0 38,3 56,8l-270 268zm-16 777l51 0 0 51 -51 0 0 -51zm153 -51l51 0 0 51 -51 0 0 -51zm561 0l510 0 0 51 -510 0 0 -51zm109 102l292 0 0 51 -292 0 0 -51zm146 -714c113,0 204,91 204,204 0,113 -91,204 -204,204 -113,0 -204,-91 -204,-204 0,-113 91,-204 204,-204z"/>
 </g>
</svg>
