<?xml version="1.0" encoding="UTF-8"?>
<!DOCTYPE svg PUBLIC "-//W3C//DTD SVG 1.1//EN" "http://www.w3.org/Graphics/SVG/1.1/DTD/svg11.dtd">
<!-- Creator: CorelDRAW X6 -->
<svg xmlns="http://www.w3.org/2000/svg" xml:space="preserve" width="1595px" height="1600px" version="1.1" style="shape-rendering:geometricPrecision; text-rendering:geometricPrecision; image-rendering:optimizeQuality; fill-rule:evenodd; clip-rule:evenodd"
viewBox="0 0 1595 1600"
 xmlns:xlink="http://www.w3.org/1999/xlink">
 <defs>
  <style type="text/css">
   <![CDATA[
    .fil0 {fill:url(#id0)}
   ]]>
  </style>
  <linearGradient id="id0" gradientUnits="userSpaceOnUse" x1="365.067" y1="1219.37" x2="1265.66" y2="422.683">
   <stop offset="0" style="stop-color:#2AF598"/>
   <stop offset="1" style="stop-color:#009EFD"/>
  </linearGradient>
 </defs>
 <g id="Слой_x0020_1">
  <metadata id="CorelCorpID_0Corel-Layer"/>
  <path id="Shape" class="fil0" d="M504 640c29,0 53,-24 53,-53l0 -54c0,-29 -24,-53 -53,-53l-320 0c-29,0 -53,24 -53,53l0 54c0,29 24,53 53,53l320 0zm904 360c-13,8 -17,24 -10,37 45,76 49,170 12,250 -4,9 -3,19 2,27 6,8 15,13 25,12 10,-2 18,-8 22,-17 44,-96 39,-208 -14,-299 -8,-13 -24,-17 -37,-10l0 0zm-479 0c-13,-7 -29,-3 -37,10 -53,91 -58,203 -14,299 4,9 12,16 22,17 10,1 19,-4 25,-12 5,-8 6,-18 2,-27 -37,-80 -33,-174 11,-250 8,-13 4,-29 -9,-37l0 0zm79 -222l0 -218 360 161c80,36 175,-1 211,-81 36,-81 0,-175 -81,-212l-490 -219 0 -22c1,-74 60,-134 134,-134 14,0 26,-12 26,-26 0,-15 -12,-27 -26,-27l-638 0c-103,0 -187,84 -187,187l0 186 -213 0c-44,0 -80,36 -80,80l0 800c0,44 36,80 80,80l213 0 0 53 -264 0c-15,0 -30,7 -41,19 -10,12 -14,28 -11,44 17,88 94,151 183,151l638 0c50,0 99,-21 134,-58 173,100 391,67 526,-80 135,-147 151,-368 37,-532 -114,-164 -326,-227 -511,-152l0 0zm-211 -414l55 -123 59 -1 -75 168 -39 -44zm-108 -123l105 0 -36 79 -69 -79zm222 129c159,71 149,68 157,68 12,0 23,-9 26,-21 3,-12 -4,-25 -15,-30l-146 -65 32 -73 365 163 -32 73 -122 -55c-9,-3 -19,-2 -26,3 -8,6 -12,15 -11,24 1,10 7,18 15,22l122 54 -33 74 -365 -164 33 -73zm517 85l-87 195 -49 -22 87 -194 49 21zm105 81c15,41 4,86 -27,116 -31,29 -77,37 -117,20l87 -195c26,12 46,33 57,59l0 0zm-1456 717l0 -800c0,-14 12,-26 27,-26l480 0c15,0 27,12 27,26l0 800c0,15 -12,27 -27,27l-480 0c-15,0 -27,-12 -27,-27zm-24 187l584 0c6,40 25,78 55,106l-508 0c-63,1 -118,-44 -131,-106l0 0zm637 -7c-3,-27 -26,-47 -53,-47l-266 0 0 -53 213 0c44,0 80,-36 80,-80l0 -800c0,-44 -36,-80 -80,-80l-213 0 0 -186c0,-74 59,-134 133,-134l507 0c-36,36 -56,84 -56,134 -1,0 -2,0 -3,0l0 0 -322 0c-11,0 -20,7 -24,16 -5,10 -3,21 4,29 247,280 212,242 222,249l123 55 0 268c-124,71 -203,200 -212,342 -9,143 54,280 168,366 -37,33 -88,43 -134,26 -47,-16 -80,-57 -87,-105l0 0zm478 113c-151,0 -287,-91 -344,-230 -58,-139 -26,-300 80,-407 107,-107 268,-138 407,-81 140,58 231,194 231,345 -1,206 -168,373 -374,373zm107 -479c0,14 12,26 27,26 14,0 26,-12 26,-26 0,-66 -57,-121 -133,-132l0 -28c0,-15 -12,-27 -27,-27 -14,0 -26,12 -26,27l0 28c-76,11 -134,66 -134,132 0,65 58,120 134,131l0 159c-46,-9 -80,-40 -80,-77 0,-15 -12,-27 -27,-27 -15,0 -27,12 -27,27 0,66 58,120 134,131l0 29c0,15 12,26 26,26 15,0 27,-11 27,-26l0 -29c76,-11 133,-65 133,-131 0,-66 -57,-121 -133,-131l0 -160c46,9 80,40 80,78zm-213 0c0,-38 34,-69 80,-78l0 155c-46,-9 -80,-40 -80,-77l0 0zm213 213c0,37 -34,68 -80,77l0 -154c46,9 80,40 80,77l0 0zm-824 -213c-45,0 -80,35 -80,80 0,44 35,79 80,79 44,0 80,-35 80,-79 0,-45 -36,-80 -80,-80zm0 106c-15,0 -27,-12 -27,-26 0,-15 12,-27 27,-27 14,0 26,12 26,27 0,14 -12,26 -26,26zm0 -293c-45,0 -80,36 -80,80 0,44 35,80 80,80 44,0 80,-36 80,-80 0,-44 -36,-80 -80,-80zm0 107c-15,0 -27,-12 -27,-27 0,-15 12,-27 27,-27 14,0 26,12 26,27 0,15 -12,27 -26,27zm0 -294c-45,0 -80,36 -80,80 0,44 35,80 80,80 44,0 80,-36 80,-80 0,-44 -36,-80 -80,-80zm0 107c-15,0 -27,-12 -27,-27 0,-15 12,-26 27,-26 14,0 26,11 26,26 0,15 -12,27 -26,27zm-214 267c-44,0 -80,35 -80,80 0,44 36,79 80,79 45,0 80,-35 80,-79 0,-45 -35,-80 -80,-80zm0 106c-14,0 -26,-12 -26,-26 0,-15 12,-27 26,-27 15,0 27,12 27,27 0,14 -12,26 -27,26zm0 -293c-44,0 -80,36 -80,80 0,44 36,80 80,80 45,0 80,-36 80,-80 0,-44 -35,-80 -80,-80zm0 107c-14,0 -26,-12 -26,-27 0,-15 12,-27 26,-27 15,0 27,12 27,27 0,15 -12,27 -27,27zm0 -294c-44,0 -80,36 -80,80 0,44 36,80 80,80 45,0 80,-36 80,-80 0,-44 -35,-80 -80,-80zm0 107c-14,0 -26,-12 -26,-27 0,-15 12,-26 26,-26 15,0 27,11 27,26 0,15 -12,27 -27,27zm-53 -267l320 0 0 54 -320 0 0 -54z"/>
 </g>
</svg>
