<?xml version="1.0" encoding="UTF-8"?>
<!DOCTYPE svg PUBLIC "-//W3C//DTD SVG 1.1//EN" "http://www.w3.org/Graphics/SVG/1.1/DTD/svg11.dtd">
<!-- Creator: CorelDRAW X6 -->
<svg xmlns="http://www.w3.org/2000/svg" xml:space="preserve" width="1275px" height="1389px" version="1.1" style="shape-rendering:geometricPrecision; text-rendering:geometricPrecision; image-rendering:optimizeQuality; fill-rule:evenodd; clip-rule:evenodd"
viewBox="0 0 1275 1389"
 xmlns:xlink="http://www.w3.org/1999/xlink">
 <defs>
  <style type="text/css">
   <![CDATA[
    .fil0 {fill:url(#id0)}
   ]]>
  </style>
  <linearGradient id="id0" gradientUnits="userSpaceOnUse" x1="272.317" y1="1017.51" x2="1002.68" y2="371.422">
   <stop offset="0" style="stop-color:#2AF598"/>
   <stop offset="1" style="stop-color:#009EFD"/>
  </linearGradient>
 </defs>
 <g id="Слой_x0020_1">
  <metadata id="CorelCorpID_0Corel-Layer"/>
  <path class="fil0" d="M271 1129c15,0 27,-13 27,-28l0 -261c47,-12 82,-54 82,-105 0,-50 -35,-93 -82,-105l0 -342c0,-15 -12,-28 -27,-28 -15,0 -27,13 -27,28l0 342c-47,12 -81,55 -81,105 0,51 34,93 81,105l0 261c0,15 12,28 27,28zm489 260l406 0c60,0 109,-49 109,-109l0 -1171c0,-60 -49,-109 -109,-109l-1057 0c-60,0 -109,49 -109,109l0 1171c0,60 49,109 109,109l406 0c15,0 28,-12 28,-27 0,-15 -13,-27 -28,-27l-406 0c-30,0 -55,-25 -55,-55l0 -1171c0,-30 25,-55 55,-55l1057 0c30,0 55,25 55,55l0 1171c0,30 -25,55 -55,55l-406 0c-15,0 -28,12 -28,27 0,15 13,27 28,27zm-95 -27c0,-15 -13,-27 -28,-27 -14,0 -27,12 -27,27 0,15 13,27 27,27 15,0 28,-12 28,-27zm67 -359l0 98c0,15 13,28 28,28 15,0 27,-13 27,-28l0 -98c46,-12 81,-55 81,-105 0,-51 -35,-93 -81,-105l0 -505c0,-15 -12,-28 -27,-28 -15,0 -28,13 -28,28l0 505c-46,12 -81,54 -81,105 0,50 35,93 81,105zm28 -159c29,0 54,24 54,54 0,30 -25,54 -54,54 -30,0 -55,-24 -55,-54 0,-30 25,-54 55,-54zm244 -584c-15,0 -27,13 -27,28l0 261c-47,12 -82,54 -82,105 0,50 35,93 82,105l0 342c0,15 12,28 27,28 15,0 27,-13 27,-28l0 -342c47,-12 81,-55 81,-105 0,-51 -34,-93 -81,-105l0 -261c0,-15 -12,-28 -27,-28zm54 394c0,30 -24,54 -54,54 -30,0 -55,-24 -55,-54 0,-30 25,-54 55,-54 30,0 54,24 54,54zm-543 475c15,0 28,-13 28,-28l0 -505c46,-12 81,-55 81,-105 0,-50 -35,-93 -81,-105l0 -98c0,-15 -13,-28 -28,-28 -15,0 -27,13 -27,28l0 98c-46,12 -81,55 -81,105 0,50 35,93 81,105l0 505c0,15 12,28 27,28zm-54 -638c0,-30 25,-54 54,-54 30,0 55,24 55,54 0,30 -25,54 -55,54 -29,0 -54,-24 -54,-54zm-244 244c0,-30 24,-54 54,-54 30,0 55,24 55,54 0,30 -25,54 -55,54 -30,0 -54,-24 -54,-54z"/>
 </g>
</svg>
