<?xml version="1.0" encoding="UTF-8"?>
<!DOCTYPE svg PUBLIC "-//W3C//DTD SVG 1.1//EN" "http://www.w3.org/Graphics/SVG/1.1/DTD/svg11.dtd">
<!-- Creator: CorelDRAW X6 -->
<svg xmlns="http://www.w3.org/2000/svg" xml:space="preserve" width="1600px" height="1536px" version="1.1" style="shape-rendering:geometricPrecision; text-rendering:geometricPrecision; image-rendering:optimizeQuality; fill-rule:evenodd; clip-rule:evenodd"
viewBox="0 0 1600 1536"
 xmlns:xlink="http://www.w3.org/1999/xlink">
 <defs>
  <style type="text/css">
   <![CDATA[
    .fil0 {fill:url(#id0)}
   ]]>
  </style>
  <linearGradient id="id0" gradientUnits="userSpaceOnUse" x1="372.378" y1="1151.11" x2="1238.7" y2="384.752">
   <stop offset="0" style="stop-color:#2AF598"/>
   <stop offset="1" style="stop-color:#009EFD"/>
  </linearGradient>
 </defs>
 <g id="Слой_x0020_1">
  <metadata id="CorelCorpID_0Corel-Layer"/>
  <path id="XMLID_389_" class="fil0" d="M1597 842c-14,-145 -79,-281 -182,-384 -88,-88 -195,-144 -309,-169l0 -80c47,-11 81,-53 81,-103 0,-58 -48,-106 -106,-106l-225 0c-59,0 -106,48 -106,106 0,50 34,92 80,103l0 80c-113,25 -220,82 -308,169 -19,19 -36,40 -53,60 0,0 -1,0 -2,0l-223 0c-17,0 -31,14 -31,32 0,17 14,31 31,31l183 0c-23,38 -42,79 -56,120l-340 0c-17,0 -31,14 -31,31 0,17 14,31 31,31l323 0c-9,40 -14,80 -16,121l-138 0c-17,0 -31,14 -31,31 0,17 14,31 31,31l139 0c3,41 9,81 20,120l-203 0c-17,0 -31,14 -31,31 0,18 14,32 31,32l223 0c30,81 78,157 143,222 103,103 240,168 384,182 21,2 42,3 62,3 122,0 243,-35 345,-102 14,-9 18,-29 9,-43 -9,-15 -29,-19 -43,-9 -224,145 -523,114 -712,-75 -222,-222 -222,-583 0,-805 221,-221 582,-221 804,0 189,189 220,488 75,712 -9,14 -5,34 9,43 15,10 34,5 44,-9 77,-119 112,-264 98,-406zm-1566 224c-8,0 -16,4 -22,9 -6,6 -9,14 -9,22 0,9 3,17 9,23 6,5 14,9 22,9 8,0 17,-4 22,-9 6,-6 10,-14 10,-23 0,-8 -4,-16 -10,-22 -5,-5 -14,-9 -22,-9zm937 113c-17,0 -31,14 -31,31l0 29c0,17 14,31 31,31 18,0 32,-14 32,-31l0 -29c0,-17 -14,-31 -32,-31zm1 -548c17,0 31,-14 31,-32l0 -29c0,-17 -14,-31 -31,-31 -17,0 -31,14 -31,31l0 29c0,18 14,32 31,32zm-305 242l-29 0c-18,0 -32,14 -32,31 0,18 14,31 32,31l29 0c17,0 31,-13 31,-31 0,-17 -14,-31 -31,-31zm639 1l-29 0c-17,0 -31,14 -31,31 0,17 14,31 31,31l29 0c17,0 31,-14 31,-31 0,-17 -14,-31 -31,-31zm-137 -211l-154 155c-13,-7 -28,-10 -43,-10 -16,0 -30,3 -43,10l-69 -70c-13,-12 -32,-12 -45,0 -12,12 -12,32 0,44l70 70c-7,13 -10,27 -10,43 0,53 43,97 97,97 53,0 97,-44 97,-97 0,-16 -4,-30 -10,-43l150 -151 0 0 5 -4c12,-12 12,-32 0,-44 -13,-12 -32,-12 -45,0zm-197 276c-19,0 -35,-15 -35,-34 0,-19 16,-35 35,-35 19,0 34,16 34,35 0,19 -15,34 -34,34zm0 -519c-268,0 -485,217 -485,485 0,267 217,484 485,484 267,0 485,-217 485,-484 0,-268 -218,-485 -485,-485zm0 907c-233,0 -423,-190 -423,-422 0,-233 190,-423 423,-423 233,0 422,190 422,423 0,232 -189,422 -422,422zm424 -29c-8,0 -16,3 -22,9 -6,6 -9,14 -9,22 0,8 3,16 9,22 6,6 14,9 22,9 8,0 16,-3 22,-9 6,-6 9,-14 9,-22 0,-8 -3,-16 -9,-22 -6,-6 -14,-9 -22,-9zm-581 -1192c0,-24 20,-43 44,-43l225 0c24,0 44,19 44,43 0,24 -20,44 -44,44l-6 0 -214 0 -5 0c-24,0 -44,-20 -44,-44zm81 172l0 -65 151 0 0 65c-50,-6 -101,-6 -151,0z"/>
 </g>
</svg>
